<svg width="71" height="87" viewBox="0 0 71 87" fill="none" xmlns="http://www.w3.org/2000/svg">
<path d="M63.7904 73.3493C64.9581 75.6881 64.5074 77.8307 62.952 79.6306C61.2833 81.5616 58.3391 83 55 83H16C12.6609 83 9.71675 81.5616 8.048 79.6306C6.4926 77.8307 6.04189 75.6881 7.20962 73.3493C12.3344 63.0851 23.0653 56 35.5 56C47.9347 56 58.6656 63.0851 63.7904 73.3493Z" fill="#141715" stroke="#7350E6" stroke-width="8"/>
<path d="M57 26C57 38.2238 47.3013 48 35.5 48C23.6987 48 14 38.2238 14 26C14 13.7762 23.6987 4 35.5 4C47.3013 4 57 13.7762 57 26Z" fill="#141715" stroke="#7350E6" stroke-width="8"/>
<path d="M63.7904 73.3493C64.9581 75.6881 64.5074 77.8307 62.952 79.6306C61.2833 81.5616 58.3391 83 55 83H16C12.6609 83 9.71675 81.5616 8.048 79.6306C6.4926 77.8307 6.04189 75.6881 7.20962 73.3493C12.3344 63.0851 23.0653 56 35.5 56C47.9347 56 58.6656 63.0851 63.7904 73.3493Z" fill="#141715" stroke="#7350E6" stroke-width="8"/>
<path d="M57 26C57 38.2238 47.3013 48 35.5 48C23.6987 48 14 38.2238 14 26C14 13.7762 23.6987 4 35.5 4C47.3013 4 57 13.7762 57 26Z" stroke="#7350E6" stroke-width="8"/>
</svg>
