<svg width="79" height="80" viewBox="0 0 79 80" fill="none" xmlns="http://www.w3.org/2000/svg">
<path d="M22.76 64.623L12.8878 57L9.57969 75.0148L22.76 64.623Z" stroke="#141715" stroke-width="8" stroke-linejoin="round"/>
<path d="M39.2601 69C19.6764 69 4.26013 54.2038 4.26013 36.5C4.26013 18.7962 19.6764 4 39.2601 4C58.8438 4 74.2601 18.7962 74.2601 36.5C74.2601 54.2038 58.8438 69 39.2601 69Z" fill="#7350E6" stroke="#141715" stroke-width="8"/>
<path d="M24.918 57.5331L17.2951 52.5305C16.6964 52.1377 15.8909 52.4829 15.7626 53.1874L12.3135 68.2383C12.1483 69.145 13.1935 69.7734 13.9169 69.2024L24.989 59.1541C25.5247 58.7311 25.4887 57.9076 24.918 57.5331Z" fill="#7350E6"/>
</svg>
