<svg width="93" height="91" viewBox="0 0 93 91" fill="none" xmlns="http://www.w3.org/2000/svg">
<path d="M46.4166 65.8543L48.1799 68.2814C48.179 68.282 48.1781 68.2827 48.1772 68.2834L48.1799 68.2814L46.4166 65.8543ZM46.4166 65.8543L44.6532 68.2814C44.6541 68.282 44.655 68.2827 44.656 68.2834L44.6532 68.2814L46.4166 65.8543ZM18.6316 78.5692L22.4358 79.8052L18.6316 78.5692C17.1348 83.1757 22.4072 87.0063 26.3258 84.1593L46.4166 69.5625L66.5074 84.1593C70.4259 87.0063 75.6984 83.1758 74.2016 78.5692L66.5276 54.951L86.6184 40.3542C90.5369 37.5072 88.5231 31.3091 83.6794 31.3091L58.8458 31.3091L51.1718 7.69098L47.3676 8.92705L51.1718 7.69097C49.6751 3.08445 43.1581 3.08442 41.6613 7.69097L45.4655 8.92705L41.6613 7.69098L33.9873 31.3091L9.1537 31.3091C4.31011 31.3091 2.29618 37.5072 6.21477 40.3542L26.3056 54.951L18.6316 78.5692Z" fill="#F9EF70" stroke="#0E0C14" stroke-width="8"/>
</svg>
