<svg width="286" height="34" viewBox="0 0 286 34" fill="none" xmlns="http://www.w3.org/2000/svg">
<path d="M8.88474 9.84651C9.3575 9.07827 10.0371 8.45776 10.9235 7.98499C11.81 7.51222 12.8245 7.27584 13.967 7.27584C15.3262 7.27584 16.5574 7.62057 17.6605 8.31002C18.7636 8.99947 19.6304 9.9844 20.2607 11.2648C20.9108 12.5452 21.2358 14.0325 21.2358 15.7266C21.2358 17.4206 20.9108 18.9177 20.2607 20.2179C19.6304 21.4983 18.7636 22.4931 17.6605 23.2022C16.5574 23.8917 15.3262 24.2364 13.967 24.2364C12.8048 24.2364 11.7903 24.0098 10.9235 23.5568C10.0568 23.084 9.3772 22.4635 8.88474 21.6953V24H3.83203V2.13449H8.88474V9.84651ZM16.0944 15.7266C16.0944 14.4658 15.7399 13.4809 15.0307 12.7718C14.3413 12.0429 13.4844 11.6785 12.46 11.6785C11.4554 11.6785 10.5985 12.0429 9.88937 12.7718C9.19992 13.5006 8.85519 14.4954 8.85519 15.7561C8.85519 17.0168 9.19992 18.0116 9.88937 18.7405C10.5985 19.4693 11.4554 19.8337 12.46 19.8337C13.4647 19.8337 14.3216 19.4693 15.0307 18.7405C15.7399 17.9919 16.0944 16.9873 16.0944 15.7266Z" fill="#141715"/>
<path d="M28.9393 10.2602C29.5302 9.35405 30.2689 8.64489 31.1554 8.13273C32.0418 7.60087 33.0267 7.33494 34.1102 7.33494V12.6831H32.7214C31.4607 12.6831 30.5152 12.9589 29.8848 13.5105C29.2545 14.0423 28.9393 14.9879 28.9393 16.3471V24H23.8866V7.51222H28.9393V10.2602Z" fill="#141715"/>
<path d="M52.8062 7.51222V24H47.7535V21.7544C47.2413 22.4832 46.542 23.0742 45.6556 23.5272C44.7888 23.9606 43.8236 24.1773 42.7599 24.1773C41.4992 24.1773 40.3862 23.9015 39.421 23.3499C38.4557 22.7787 37.7072 21.9612 37.1753 20.8975C36.6434 19.8337 36.3775 18.5829 36.3775 17.1449V7.51222H41.4007V16.4653C41.4007 17.5684 41.6863 18.4253 42.2576 19.0359C42.8288 19.6466 43.5971 19.9519 44.5623 19.9519C45.5472 19.9519 46.3253 19.6466 46.8966 19.0359C47.4679 18.4253 47.7535 17.5684 47.7535 16.4653V7.51222H52.8062Z" fill="#141715"/>
<path d="M66.4818 7.33494C68.4123 7.33494 69.9488 7.96529 71.0913 9.22601C72.2535 10.467 72.8346 12.1808 72.8346 14.3674V24H67.8115V15.047C67.8115 13.9438 67.5259 13.0869 66.9546 12.4763C66.3833 11.8656 65.6151 11.5603 64.6499 11.5603C63.6846 11.5603 62.9164 11.8656 62.3451 12.4763C61.7739 13.0869 61.4882 13.9438 61.4882 15.047V24H56.4355V7.51222H61.4882V9.69877C62.0004 8.96992 62.6898 8.39866 63.5566 7.98499C64.4233 7.55162 65.3984 7.33494 66.4818 7.33494Z" fill="#141715"/>
<path d="M83.851 24.2364C82.2357 24.2364 80.778 23.8917 79.4779 23.2022C78.1974 22.5127 77.183 21.5278 76.4344 20.2474C75.7056 18.967 75.3411 17.4699 75.3411 15.7561C75.3411 14.062 75.7154 12.5748 76.464 11.2944C77.2125 9.99425 78.2368 8.99947 79.537 8.31002C80.8371 7.62057 82.2948 7.27584 83.9101 7.27584C85.5253 7.27584 86.9831 7.62057 88.2832 8.31002C89.5833 8.99947 90.6076 9.99425 91.3562 11.2944C92.1047 12.5748 92.479 14.062 92.479 15.7561C92.479 17.4502 92.0949 18.9473 91.3266 20.2474C90.5781 21.5278 89.5439 22.5127 88.2241 23.2022C86.924 23.8917 85.4663 24.2364 83.851 24.2364ZM83.851 19.8633C84.8162 19.8633 85.6337 19.5087 86.3034 18.7996C86.9929 18.0904 87.3376 17.0759 87.3376 15.7561C87.3376 14.4363 87.0027 13.4218 86.333 12.7127C85.6829 12.0035 84.8753 11.6489 83.9101 11.6489C82.9251 11.6489 82.1076 12.0035 81.4576 12.7127C80.8075 13.4021 80.4825 14.4166 80.4825 15.7561C80.4825 17.0759 80.7977 18.0904 81.428 18.7996C82.0781 19.5087 82.8857 19.8633 83.851 19.8633Z" fill="#141715"/>
<path d="M100.212 9.84651C100.685 9.07827 101.365 8.45776 102.251 7.98499C103.137 7.51222 104.152 7.27584 105.294 7.27584C106.654 7.27584 107.885 7.62057 108.988 8.31002C110.091 8.99947 110.958 9.9844 111.588 11.2648C112.238 12.5452 112.563 14.0325 112.563 15.7266C112.563 17.4206 112.238 18.9177 111.588 20.2179C110.958 21.4983 110.091 22.4931 108.988 23.2022C107.885 23.8917 106.654 24.2364 105.294 24.2364C104.132 24.2364 103.118 24.0098 102.251 23.5568C101.384 23.084 100.705 22.4635 100.212 21.6953V24H95.1595V2.13449H100.212V9.84651ZM107.422 15.7266C107.422 14.4658 107.067 13.4809 106.358 12.7718C105.669 12.0429 104.812 11.6785 103.788 11.6785C102.783 11.6785 101.926 12.0429 101.217 12.7718C100.527 13.5006 100.183 14.4954 100.183 15.7561C100.183 17.0168 100.527 18.0116 101.217 18.7405C101.926 19.4693 102.783 19.8337 103.788 19.8337C104.792 19.8337 105.649 19.4693 106.358 18.7405C107.067 17.9919 107.422 16.9873 107.422 15.7266Z" fill="#141715"/>
<path d="M120.267 10.2602C120.858 9.35405 121.596 8.64489 122.483 8.13273C123.369 7.60087 124.354 7.33494 125.438 7.33494V12.6831H124.049C122.788 12.6831 121.843 12.9589 121.212 13.5105C120.582 14.0423 120.267 14.9879 120.267 16.3471V24H115.214V7.51222H120.267V10.2602Z" fill="#141715"/>
<path d="M130.394 5.79844C129.507 5.79844 128.779 5.54236 128.207 5.03019C127.656 4.49833 127.38 3.84827 127.38 3.08003C127.38 2.29208 127.656 1.64202 128.207 1.12986C128.779 0.597994 129.507 0.332062 130.394 0.332062C131.261 0.332062 131.97 0.597994 132.521 1.12986C133.093 1.64202 133.378 2.29208 133.378 3.08003C133.378 3.84827 133.093 4.49833 132.521 5.03019C131.97 5.54236 131.261 5.79844 130.394 5.79844ZM132.905 7.51222V24H127.853V7.51222H132.905Z" fill="#141715"/>
<path d="M145.757 19.7155V24H143.186C141.354 24 139.926 23.5568 138.901 22.6703C137.877 21.7642 137.365 20.2967 137.365 18.2677V11.708H135.356V7.51222H137.365V3.4937H142.418V7.51222H145.727V11.708H142.418V18.3268C142.418 18.8193 142.536 19.1738 142.772 19.3905C143.009 19.6072 143.403 19.7155 143.954 19.7155H145.757Z" fill="#141715"/>
<path d="M156.076 24.2364C154.461 24.2364 153.003 23.8917 151.703 23.2022C150.423 22.5127 149.408 21.5278 148.66 20.2474C147.931 18.967 147.566 17.4699 147.566 15.7561C147.566 14.062 147.941 12.5748 148.689 11.2944C149.438 9.99425 150.462 8.99947 151.762 8.31002C153.062 7.62057 154.52 7.27584 156.135 7.27584C157.751 7.27584 159.208 7.62057 160.508 8.31002C161.808 8.99947 162.833 9.99425 163.581 11.2944C164.33 12.5748 164.704 14.062 164.704 15.7561C164.704 17.4502 164.32 18.9473 163.552 20.2474C162.803 21.5278 161.769 22.5127 160.449 23.2022C159.149 23.8917 157.691 24.2364 156.076 24.2364ZM156.076 19.8633C157.041 19.8633 157.859 19.5087 158.529 18.7996C159.218 18.0904 159.563 17.0759 159.563 15.7561C159.563 14.4363 159.228 13.4218 158.558 12.7127C157.908 12.0035 157.101 11.6489 156.135 11.6489C155.15 11.6489 154.333 12.0035 153.683 12.7127C153.033 13.4021 152.708 14.4166 152.708 15.7561C152.708 17.0759 153.023 18.0904 153.653 18.7996C154.303 19.5087 155.111 19.8633 156.076 19.8633Z" fill="#141715"/>
<path d="M178.903 15.7266C178.903 14.0325 179.219 12.5452 179.849 11.2648C180.499 9.9844 181.376 8.99947 182.479 8.31002C183.582 7.62057 184.813 7.27584 186.172 7.27584C187.256 7.27584 188.241 7.50237 189.127 7.95544C190.033 8.40851 190.742 9.01917 191.254 9.78742V2.13449H196.307V24H191.254V21.6362C190.782 22.4241 190.102 23.0545 189.216 23.5272C188.349 24 187.334 24.2364 186.172 24.2364C184.813 24.2364 183.582 23.8917 182.479 23.2022C181.376 22.4931 180.499 21.4983 179.849 20.2179C179.219 18.9177 178.903 17.4206 178.903 15.7266ZM191.254 15.7561C191.254 14.4954 190.9 13.5006 190.191 12.7718C189.501 12.0429 188.654 11.6785 187.65 11.6785C186.645 11.6785 185.788 12.0429 185.079 12.7718C184.389 13.4809 184.045 14.4658 184.045 15.7266C184.045 16.9873 184.389 17.9919 185.079 18.7405C185.788 19.4693 186.645 19.8337 187.65 19.8337C188.654 19.8337 189.501 19.4693 190.191 18.7405C190.9 18.0116 191.254 17.0168 191.254 15.7561Z" fill="#141715"/>
<path d="M215.505 15.4902C215.505 15.9629 215.475 16.4554 215.416 16.9676H203.981C204.06 17.9919 204.385 18.7799 204.956 19.3314C205.547 19.8633 206.266 20.1292 207.113 20.1292C208.374 20.1292 209.25 19.5973 209.743 18.5336H215.121C214.845 19.617 214.343 20.5921 213.614 21.4589C212.905 22.3256 212.008 23.0052 210.925 23.4977C209.841 23.9901 208.63 24.2364 207.29 24.2364C205.675 24.2364 204.237 23.8917 202.976 23.2022C201.716 22.5127 200.731 21.5278 200.022 20.2474C199.312 18.967 198.958 17.4699 198.958 15.7561C198.958 14.0423 199.303 12.5452 199.992 11.2648C200.701 9.9844 201.686 8.99947 202.947 8.31002C204.208 7.62057 205.655 7.27584 207.29 7.27584C208.886 7.27584 210.304 7.61072 211.545 8.28047C212.786 8.95023 213.752 9.90561 214.441 11.1466C215.15 12.3876 215.505 13.8355 215.505 15.4902ZM210.334 14.1605C210.334 13.2938 210.038 12.6043 209.447 12.0922C208.856 11.58 208.118 11.3239 207.231 11.3239C206.384 11.3239 205.665 11.5701 205.074 12.0626C204.503 12.5551 204.149 13.2544 204.011 14.1605H210.334Z" fill="#141715"/>
<path d="M224.878 24.2364C223.44 24.2364 222.159 23.9901 221.036 23.4977C219.914 23.0052 219.027 22.3355 218.377 21.4884C217.727 20.6217 217.363 19.6564 217.284 18.5927H222.278C222.337 19.164 222.603 19.6269 223.075 19.9815C223.548 20.336 224.129 20.5133 224.819 20.5133C225.449 20.5133 225.932 20.3951 226.266 20.1588C226.621 19.9027 226.798 19.5777 226.798 19.1837C226.798 18.7109 226.552 18.3662 226.06 18.1495C225.567 17.9131 224.769 17.657 223.666 17.3813C222.484 17.1055 221.499 16.8198 220.711 16.5244C219.924 16.2092 219.244 15.7266 218.673 15.0765C218.101 14.4068 217.816 13.5105 217.816 12.3876C217.816 11.4421 218.072 10.5852 218.584 9.81697C219.116 9.02902 219.884 8.40851 220.889 7.95544C221.913 7.50237 223.125 7.27584 224.523 7.27584C226.592 7.27584 228.217 7.788 229.399 8.81233C230.6 9.83666 231.29 11.1959 231.467 12.89H226.798C226.72 12.3187 226.463 11.8656 226.03 11.5307C225.616 11.1959 225.065 11.0284 224.375 11.0284C223.784 11.0284 223.331 11.1466 223.016 11.383C222.701 11.5997 222.543 11.905 222.543 12.299C222.543 12.7718 222.79 13.1263 223.282 13.3627C223.794 13.5991 224.582 13.8355 225.646 14.0719C226.867 14.3871 227.862 14.7022 228.63 15.0174C229.399 15.3129 230.068 15.8054 230.64 16.4948C231.231 17.1646 231.536 18.0707 231.556 19.2132C231.556 20.1785 231.28 21.0452 230.728 21.8134C230.196 22.562 229.418 23.153 228.394 23.5863C227.389 24.0197 226.217 24.2364 224.878 24.2364Z" fill="#141715"/>
<path d="M237.188 5.79844C236.301 5.79844 235.573 5.54236 235.001 5.03019C234.45 4.49833 234.174 3.84827 234.174 3.08003C234.174 2.29208 234.45 1.64202 235.001 1.12986C235.573 0.597994 236.301 0.332062 237.188 0.332062C238.055 0.332062 238.764 0.597994 239.315 1.12986C239.887 1.64202 240.172 2.29208 240.172 3.08003C240.172 3.84827 239.887 4.49833 239.315 5.03019C238.764 5.54236 238.055 5.79844 237.188 5.79844ZM239.699 7.51222V24H234.647V7.51222H239.699Z" fill="#141715"/>
<path d="M249.625 7.27584C250.788 7.27584 251.802 7.51222 252.669 7.98499C253.555 8.45776 254.235 9.07827 254.708 9.84651V7.51222H259.76V23.9704C259.76 25.4872 259.455 26.8563 258.844 28.0776C258.253 29.3186 257.337 30.3036 256.096 31.0324C254.875 31.7613 253.348 32.1257 251.516 32.1257C249.074 32.1257 247.094 31.5446 245.577 30.3824C244.06 29.2398 243.194 27.6836 242.977 25.7138H247.971C248.128 26.3441 248.503 26.8366 249.093 27.1912C249.684 27.5655 250.413 27.7526 251.28 27.7526C252.324 27.7526 253.151 27.4473 253.762 26.8366C254.392 26.2456 254.708 25.2903 254.708 23.9704V21.6362C254.215 22.4044 253.536 23.0348 252.669 23.5272C251.802 24 250.788 24.2364 249.625 24.2364C248.266 24.2364 247.035 23.8917 245.932 23.2022C244.829 22.4931 243.952 21.4983 243.302 20.2179C242.672 18.9177 242.357 17.4206 242.357 15.7266C242.357 14.0325 242.672 12.5452 243.302 11.2648C243.952 9.9844 244.829 8.99947 245.932 8.31002C247.035 7.62057 248.266 7.27584 249.625 7.27584ZM254.708 15.7561C254.708 14.4954 254.353 13.5006 253.644 12.7718C252.954 12.0429 252.107 11.6785 251.103 11.6785C250.098 11.6785 249.241 12.0429 248.532 12.7718C247.843 13.4809 247.498 14.4658 247.498 15.7266C247.498 16.9873 247.843 17.9919 248.532 18.7405C249.241 19.4693 250.098 19.8337 251.103 19.8337C252.107 19.8337 252.954 19.4693 253.644 18.7405C254.353 18.0116 254.708 17.0168 254.708 15.7561Z" fill="#141715"/>
<path d="M273.462 7.33494C275.392 7.33494 276.929 7.96529 278.071 9.22601C279.234 10.467 279.815 12.1808 279.815 14.3674V24H274.792V15.047C274.792 13.9438 274.506 13.0869 273.935 12.4763C273.363 11.8656 272.595 11.5603 271.63 11.5603C270.665 11.5603 269.897 11.8656 269.325 12.4763C268.754 13.0869 268.468 13.9438 268.468 15.047V24H263.416V7.51222H268.468V9.69877C268.981 8.96992 269.67 8.39866 270.537 7.98499C271.403 7.55162 272.379 7.33494 273.462 7.33494Z" fill="#141715"/>
<path fill-rule="evenodd" clip-rule="evenodd" d="M0.430176 30.8591C0.430176 29.9921 1.13303 29.2892 2.00003 29.2892H237.406C238.273 29.2892 238.976 29.9921 238.976 30.8591C238.976 31.7261 238.273 32.429 237.406 32.429H2.00003C1.13303 32.429 0.430176 31.7261 0.430176 30.8591Z" fill="#F9EF70"/>
<path fill-rule="evenodd" clip-rule="evenodd" d="M263.486 30.859C263.486 29.9919 264.189 29.2891 265.056 29.2891H284C284.867 29.2891 285.57 29.9919 285.57 30.859C285.57 31.726 284.867 32.4288 284 32.4288H265.056C264.189 32.4288 263.486 31.726 263.486 30.859Z" fill="#F9EF70"/>
<path d="M168.636 21.1859C168.636 19.1628 170.276 17.5229 172.299 17.5229V17.5229C174.322 17.5229 175.962 19.1628 175.962 21.1859V21.1859C175.962 23.2089 174.322 24.8489 172.299 24.8489V24.8489C170.276 24.8489 168.636 23.2089 168.636 21.1859V21.1859Z" fill="#F9EF70"/>
</svg>
